<svg xmlns="http://www.w3.org/2000/svg" id="bing-green-white_1_" width="100" height="64" data-name="bing-green-white (1)" viewBox="0 0 100 64">
    <defs>
        <style>
            .cls-1{fill:#068474}.cls-2{fill:#fff}
        </style>
    </defs>
    <path id="XMLID_3_" d="M4.988 5.135A3.032 3.032 0 0 0 6 2.709C6 .908 4.82 0 2.473 0H0v6h2.206a4.118 4.118 0 0 0 2.782-.865z" class="cls-1" transform="translate(44 15)"/>
    <path id="XMLID_40_" d="M6 2.949C6 .979 4.72 0 2.146 0H0v6h2.537A3.7 3.7 0 0 0 5.1 5.186 2.833 2.833 0 0 0 6 2.949z" class="cls-1" transform="translate(44 23)"/>
    <path id="XMLID_41_" d="M3.468 10A3.068 3.068 0 0 0 6 8.752a4.9 4.9 0 0 0 1-3.176V3.759a3.941 3.941 0 0 0-.946-2.649A2.9 2.9 0 0 0 3.746 0 3.2 3.2 0 0 0 1 1.4a6.75 6.75 0 0 0-1 3.926A5.478 5.478 0 0 0 .946 8.7 2.993 2.993 0 0 0 3.468 10z" class="cls-1" transform="translate(78 20)"/>
    <path id="XMLID_60_" d="M100 64H0V0h100v64zM1.586 45.3v17.3h96.828V45.3zm75.761-10.4l-.547 1.818a9.112 9.112 0 0 0 4.183.9 6.912 6.912 0 0 0 5.2-1.807 7.615 7.615 0 0 0 1.735-5.435V18.422h-2.107v1.814h-.056a4.123 4.123 0 0 0-3.846-2.136 5.377 5.377 0 0 0-4.409 1.982 8.42 8.42 0 0 0-1.615 5.358 7.048 7.048 0 0 0 1.488 4.712 4.868 4.868 0 0 0 3.945 1.66 4.791 4.791 0 0 0 4.421-2.5h.061v1.421a5.453 5.453 0 0 1-1.21 3.858 4.8 4.8 0 0 1-3.632 1.274 7.049 7.049 0 0 1-3.607-.957zM12.084 6.933V34.2l6.116 3.418 15.313-8.845v-6.947L19.93 17.044 22.6 23.7l4.225 1.983-8.625 4.988V9.085zM68.1 19.885a2.541 2.541 0 0 1 2.251 1.046 5.461 5.461 0 0 1 .725 3.145v7.411h2.105v-7.946a6.277 6.277 0 0 0-1.139-4.041 4.029 4.029 0 0 0-3.3-1.392 4.634 4.634 0 0 0-4.238 2.447h-.057v-2.133h-2.103v13.064h2.105v-7.41a4.41 4.41 0 0 1 1.039-3 3.306 3.306 0 0 1 2.612-1.191zm-11.328-1.463v13.064h2.105V18.422zM42.723 13.05v18.436h5.361a6.322 6.322 0 0 0 4.267-1.462 4.8 4.8 0 0 0 1.7-3.825 4.338 4.338 0 0 0-1.123-3.093 4.681 4.681 0 0 0-2.977-1.406v-.057a4.426 4.426 0 0 0 3.173-4.373 3.8 3.8 0 0 0-1.4-3.052 5.808 5.808 0 0 0-3.794-1.168zm15.13-.393a1.3 1.3 0 0 0-.968.393 1.345 1.345 0 0 0-.393 1 1.283 1.283 0 0 0 .393.97 1.361 1.361 0 0 0 .968.38 1.371 1.371 0 1 0 0-2.742z" class="cls-1"/>
    <path id="Rectangle" d="M0 0h98v58H0z" class="cls-1" transform="translate(1 5)"/>
    <path id="XMLID_76_" d="M22 22.064v-7.019l-13.946-4.83 2.737 6.72 4.337 2-8.846 5.047V2.174L0 0v27.562L6.282 31z" class="cls-2" transform="translate(13 6)"/>
    <path id="XMLID_79_" d="M5.666 19H0V0h5.533a6.186 6.186 0 0 1 4.005 1.2 3.837 3.837 0 0 1 1.483 3.145 4.541 4.541 0 0 1-.89 2.812 4.777 4.777 0 0 1-2.462 1.7v.058a5.009 5.009 0 0 1 3.145 1.45A4.458 4.458 0 0 1 12 13.55a4.929 4.929 0 0 1-1.795 3.942A6.792 6.792 0 0 1 5.666 19zM2.3 10.145v6.826h3.085a4.726 4.726 0 0 0 3.115-.928 3.143 3.143 0 0 0 1.1-2.536 2.913 2.913 0 0 0-1.17-2.524 6.067 6.067 0 0 0-3.517-.839zm0-8.131v6.131h2.328a4.471 4.471 0 0 0 2.937-.884 3.026 3.026 0 0 0 1.068-2.478c0-1.837-1.253-2.768-3.723-2.768z" class="cls-2" transform="translate(43 13)"/>
    <path id="XMLID_81_" d="M1.485 3a1.463 1.463 0 0 0 1.072-.431A1.458 1.458 0 0 0 3 1.508 1.467 1.467 0 0 0 2.556.431 1.463 1.463 0 0 0 1.485 0 1.428 1.428 0 0 0 .429.431 1.454 1.454 0 0 0 0 1.508a1.4 1.4 0 0 0 .429 1.061A1.489 1.489 0 0 0 1.485 3z" class="cls-2" transform="translate(56 13)"/>
    <path id="XMLID_82_" d="M0 0h3v13H0z" class="cls-2" transform="translate(57 19)"/>
    <path id="XMLID_83_" d="M2.137 6.242a4.689 4.689 0 0 1 1.054-3.136 3.338 3.338 0 0 1 2.651-1.251c2.066 0 3.021 1.457 3.021 4.387V14H11V5.682a6.721 6.721 0 0 0-1.154-4.225A4.03 4.03 0 0 0 6.5 0a4.706 4.706 0 0 0-4.3 2.562h-.063V.324H0V14h2.137V6.242z" class="cls-2" transform="translate(62 18)"/>
    <path id="XMLID_86_" d="M5.082 19a9.109 9.109 0 0 1-4.172-.876l.546-1.766a7.21 7.21 0 0 0 3.6.931 4.855 4.855 0 0 0 3.624-1.24 5.224 5.224 0 0 0 1.208-3.755V10.91H9.83a4.732 4.732 0 0 1-4.411 2.437A4.852 4.852 0 0 1 1.485 11.7 6.746 6.746 0 0 1 0 7.118a7.918 7.918 0 0 1 1.61-5.187A5.39 5.39 0 0 1 6.008 0a4.136 4.136 0 0 1 3.835 2.081H9.9V.315H12V11.95a7.3 7.3 0 0 1-1.731 5.286A6.993 6.993 0 0 1 5.082 19zM6.26 1.766a3.693 3.693 0 0 0-3.053 1.383A6.183 6.183 0 0 0 2.1 7.009a4.948 4.948 0 0 0 1.05 3.326 3.429 3.429 0 0 0 2.8 1.286 3.555 3.555 0 0 0 2.816-1.231 4.471 4.471 0 0 0 1.106-3.135V5.476a3.646 3.646 0 0 0-1.05-2.614A3.358 3.358 0 0 0 6.26 1.766z" class="cls-2" transform="translate(76 18)"/>
    <path id="XMLID_89_" d="M96 17H0V0h96v17zM69.13 6.579l1.8 4.437a.689.689 0 0 1 .055.235.6.6 0 0 1-.069.207 2.63 2.63 0 0 1-.737.981 2.183 2.183 0 0 1-.766.429l.223.733a2.512 2.512 0 0 0 1.085-.567c.581-.485 1-1.245 1.67-3.013l1.322-3.427h-.932l-.96 2.833c-.118.366-.232.751-.306 1.009H71.5c-.069-.291-.193-.66-.305-.982l-1.063-2.847v-.028zm-19.885 5.846l-.222.663a3.082 3.082 0 0 0 1.614.4 2.6 2.6 0 0 0 1.768-.581 2.728 2.728 0 0 0 .7-2.2V7.919c0-.447.016-.773.029-1.06 0-.093.009-.181.012-.266h-.765l-.041.733h-.014A1.63 1.63 0 0 0 50.8 6.5a2.337 2.337 0 0 0-2.2 2.529 2.146 2.146 0 0 0 2.059 2.35 1.754 1.754 0 0 0 1.544-.8h.014v.539c0 1.393-.848 1.686-1.559 1.686a2.806 2.806 0 0 1-1.419-.373zM32.033 6.607v.677h.752V9.91a1.755 1.755 0 0 0 .334 1.257 1.169 1.169 0 0 0 .946.373 2.2 2.2 0 0 0 .779-.124l-.042-.663a2.194 2.194 0 0 1-.515.055c-.462 0-.668-.29-.668-.94V7.27h1.266v-.663h-1.266V5.225l-.862.235v1.147zM67.4 6.51a2.593 2.593 0 0 0-1.895.725 2.533 2.533 0 0 0-.693 1.832 2.311 2.311 0 0 0 2.421 2.461 3.192 3.192 0 0 0 1.391-.276l-.153-.664a2.542 2.542 0 0 1-1.085.235 1.65 1.65 0 0 1-1.684-1.8A1.676 1.676 0 0 1 67.419 7.2a1.954 1.954 0 0 1 1.015.235l.2-.677A2.885 2.885 0 0 0 67.4 6.51zM56.495 6.5a2.343 2.343 0 0 0-2.268 2.6 2.256 2.256 0 0 0 2.38 2.434 3.924 3.924 0 0 0 1.615-.3l-.154-.622a3.183 3.183 0 0 1-1.336.248 1.547 1.547 0 0 1-1.67-1.672h3.409a2.99 2.99 0 0 0 .028-.415A2.029 2.029 0 0 0 56.495 6.5zm-18.757 0a2.343 2.343 0 0 0-2.269 2.6 2.256 2.256 0 0 0 2.38 2.434 3.924 3.924 0 0 0 1.615-.3l-.154-.634a3.153 3.153 0 0 1-1.336.248A1.547 1.547 0 0 1 36.3 9.177h3.409a2.862 2.862 0 0 0 .028-.415A2.029 2.029 0 0 0 37.738 6.5zm21.805.124c.028.4.041.817.041 1.3v3.506h.89v-2.9a1.232 1.232 0 0 1 .056-.415 1.257 1.257 0 0 1 1.183-.9c.981 0 1.128.892 1.128 1.424v2.778h.877V8.542c0-1.947-1.426-2.046-1.712-2.046a1.789 1.789 0 0 0-1.6.912h-.014l-.056-.8v.014zm-29.319-.017v4.823h.876V6.607zm-7.278-1.894v6.717h3.8v-.73h-2.923V8.279h2.63V7.56h-2.63V5.446h2.769v-.733zM44.083 9.3h2.393l.724 2.115h.932l-2.309-6.7h-1.058l-2.3 6.7h.919l.7-2.114zM27.844 4.353v7.063h.877V4.353zm2.811.36a.549.549 0 0 0-.4.163.559.559 0 0 0 .389.928.575.575 0 0 0 .423-.164.5.5 0 0 0 .134-.375.519.519 0 0 0-.546-.552z" class="cls-2" transform="translate(2 45)"/>
    <path id="Rectangle_3" d="M0 0h68v13H0z" class="cls-2" data-name="Rectangle 3" transform="translate(14 47)"/>
    <path id="XMLID_101_" d="M1.573 0C.535 0 .081 1.146 0 2h3c0-.8-.276-2-1.427-2z" class="cls-2" transform="translate(57 52)"/>
    <path id="XMLID_102_" d="M1.584 4a1.409 1.409 0 0 0 1.34-1.008A1.585 1.585 0 0 0 3 2.465v-.977a1.4 1.4 0 0 0-.061-.45A1.392 1.392 0 0 0 1.584 0C.67 0 0 .791 0 2.046.015 3.116.548 4 1.584 4z" class="cls-2" transform="translate(51 52)"/>
    <path id="XMLID_103_" d="M1.573 0C.535 0 .081 1.146 0 2h3c0-.8-.276-2-1.427-2z" class="cls-2" transform="translate(38 52)"/>
    <path id="XMLID_104_" d="M2.014 1.561A14.607 14.607 0 0 1 1.5 0h-.021a25.137 25.137 0 0 1-.493 1.544L0 4h3z" class="cls-2" transform="translate(46 50)"/>
    <path id="XMLID_105_" d="M4 5.346H.923V3.185h2.77v-.642H.923V.654h2.916V0H0v6h4z" class="cls-1" transform="translate(24 50)"/>
    <path id="XMLID_106_" d="M0 0h1v7H0z" class="cls-1" transform="translate(30 50)"/>
    <path id="XMLID_107_" d="M0 0h1v5H0z" class="cls-1" transform="translate(32 52)"/>
    <path id="XMLID_108_" d="M.493 1A.468.468 0 0 0 1 .506.482.482 0 0 0 .506 0 .492.492 0 0 0 0 .506.494.494 0 0 0 .493 1z" class="cls-1" transform="translate(32 50)"/>
    <path id="XMLID_109_" d="M.812 4.451a1.6 1.6 0 0 0 .348 1.195A1.356 1.356 0 0 0 2.145 6a2.453 2.453 0 0 0 .812-.118l-.043-.63a2.424 2.424 0 0 1-.536.052c-.507 0-.7-.315-.7-.893V1.943H3v-.63H1.681V0l-.9.223v1.1H0v.63h.783V4.45z" class="cls-1" transform="translate(33 50)"/>
    <path id="XMLID_112_" d="M2.785 5a3.026 3.026 0 0 1-2.046-.668A2.262 2.262 0 0 1 0 2.582 2.586 2.586 0 0 1 .7.75 2.653 2.653 0 0 1 2.655 0 2.157 2.157 0 0 1 5 2.253a2.331 2.331 0 0 1-.033.412H.977c.029 1.04.759 1.662 1.954 1.662A4.35 4.35 0 0 0 4.5 4.08l.179.618A5.367 5.367 0 0 1 2.785 5zM2.573.632A1.572 1.572 0 0 0 .994 2.047h3.013a1.429 1.429 0 0 0-.372-1.024A1.418 1.418 0 0 0 2.573.632z" class="cls-1" transform="translate(38 51)"/>
    <path id="XMLID_115_" d="M.958 6H0l2.433-6h1.12L6 6h-.988l-.767-1.892H1.71L.959 6zM2.948.68c-.1.337-.213.693-.354 1.089l-.707 1.745h2.152l-.707-1.733A10.451 10.451 0 0 1 2.985.756L2.963.68z" class="cls-1" transform="translate(44 50)"/>
    <path id="XMLID_118_" d="M2.231 7a3.68 3.68 0 0 1-1.785-.4l.246-.664a3.316 3.316 0 0 0 1.57.373 1.538 1.538 0 0 0 1.722-1.688v-.539h-.015a2.021 2.021 0 0 1-1.707.8 2.244 2.244 0 0 1-1.614-.65A2.314 2.314 0 0 1 0 2.56 2.408 2.408 0 0 1 2.416 0a1.791 1.791 0 0 1 1.676.83h.015L4.154.1H5a14.66 14.66 0 0 0-.047 1.328v2.791a2.579 2.579 0 0 1-.769 2.2A3.067 3.067 0 0 1 2.231 7zM2.569.664a1.5 1.5 0 0 0-1.094.436 1.908 1.908 0 0 0-.49 1.4 1.556 1.556 0 0 0 1.584 1.733 1.433 1.433 0 0 0 1.354-.9A1.235 1.235 0 0 0 4 2.864v-.872a1.1 1.1 0 0 0-.061-.4 1.406 1.406 0 0 0-1.37-.928z" class="cls-1" transform="translate(50 51)"/>
    <path id="XMLID_121_" d="M2.786 5C1.067 5 0 4.074 0 2.582A2.586 2.586 0 0 1 .7.75 2.653 2.653 0 0 1 2.655 0 2.157 2.157 0 0 1 5 2.253a2.341 2.341 0 0 1-.032.412H.977c.029 1.04.759 1.662 1.954 1.662A4.34 4.34 0 0 0 4.5 4.08l.179.618A5.364 5.364 0 0 1 2.786 5zM2.573.632A1.572 1.572 0 0 0 .994 2.047h3.013a1.429 1.429 0 0 0-.372-1.024A1.418 1.418 0 0 0 2.573.632z" class="cls-1" transform="translate(56 51)"/>
    <path id="XMLID_122_" d="M.05 5H1.1V2.059a1.088 1.088 0 0 1 .067-.42A1.5 1.5 0 0 1 2.592.728a1.266 1.266 0 0 1 1.355 1.443v2.815H5V2.073A1.922 1.922 0 0 0 2.943 0 2.187 2.187 0 0 0 1.02.924H1L.937.112H0c.034.406.05.812.05 1.317V5z" class="cls-1" transform="translate(61 51)"/>
    <path id="XMLID_123_" d="M3.182 5A5.587 5.587 0 0 0 5 4.725l-.2-.661a4.165 4.165 0 0 1-1.418.236c-1.254 0-2.2-.689-2.2-1.791 0-1.009.782-1.82 2.236-1.82a3.2 3.2 0 0 1 1.327.234L5 .248A4.729 4.729 0 0 0 3.4 0C1.327 0 0 1.074 0 2.548.037 4.022 1.273 5 3.182 5z" class="cls-1" transform="translate(68 51)"/>
    <path id="XMLID_124_" d="M2 4.653a.48.48 0 0 1-.076.207 2.8 2.8 0 0 1-.811.981 2.749 2.749 0 0 1-.841.428L.52 7a2.813 2.813 0 0 0 1.193-.566 7.305 7.305 0 0 0 1.835-3.01L5 0H3.96L2.905 2.83c-.137.345-.245.718-.336 1.008h-.016c-.092-.29-.214-.663-.336-.981L1.055.014H0l1.973 4.432A1.357 1.357 0 0 1 2 4.653z" class="cls-1" transform="translate(71 52)"/>
</svg>
