<svg xmlns="http://www.w3.org/2000/svg" width="103" height="72" viewBox="0 0 103 72">
    <defs>
        <style>
            .cls-1{opacity:.743}.cls-2{fill:#fff}.cls-3{fill:#fedc00}.cls-4{fill:#0c75bc}.cls-5{fill:#6aa542}.cls-6{fill:#dc2a27}.cls-7{fill:#ef7e25}
        </style>
    </defs>
    <g id="inc-5000-color" class="cls-1">
        <path id="Shape" d="M14.627 36a13.448 13.448 0 0 1-11.712-6.189 17.2 17.2 0 0 1-2.154-4.994A24.933 24.933 0 0 1 0 18.5c0-5.023 1.17-9.37 3.383-12.573a13.324 13.324 0 0 1 4.828-4.32A15.21 15.21 0 0 1 15.3 0h.26c5.176.07 9.067 2.141 11.565 6.154A22.24 22.24 0 0 1 30 17.5a22.336 22.336 0 0 1-3.418 12.462 13.478 13.478 0 0 1-4.751 4.351A15.01 15.01 0 0 1 14.627 36zm.555-29.164a4.227 4.227 0 0 0-3.54 2.151c-1.342 2.264-1.492 6.832-1.492 10.071a25.943 25.943 0 0 0 .451 5.559c.673 2.785 2.227 4.319 4.373 4.319 3.3 0 4.92-3.443 4.945-10.525a40.864 40.864 0 0 0-.608-7.466c-.359-1.535-1.373-4.109-4.129-4.109z" class="cls-2" transform="translate(73 36)"/>
        <path id="Shape-2" d="M14.9 36a15.946 15.946 0 0 1-6.653-1.368 13.57 13.57 0 0 1-5.062-3.964A12.734 12.734 0 0 0 5.9 22.9 10.845 10.845 0 0 0 0 13.2a20.209 20.209 0 0 1 1.791-5.225h2.23l.4-3.672A14.965 14.965 0 0 1 15.581 0h.3C21.289.065 25.366 2.1 28 6.052c-2.332 3.228-3.564 7.58-3.564 12.587a19.8 19.8 0 0 0 3.071 11.312 13.867 13.867 0 0 1-5 4.362A16.546 16.546 0 0 1 14.9 36zm.58-29.162a4.49 4.49 0 0 0-3.728 2.15c-1.409 2.265-1.572 6.833-1.572 10.071a24.647 24.647 0 0 0 .475 5.559c.709 2.785 2.345 4.318 4.606 4.318 3.479 0 5.182-3.443 5.208-10.525a38.848 38.848 0 0 0-.639-7.465c-.378-1.534-1.446-4.108-4.35-4.108z" class="cls-3" data-name="Shape" transform="translate(25 36)"/>
        <path id="Shape-3" d="M12.088 36A14.008 14.008 0 0 1 0 29.813a21.817 21.817 0 0 0 3.51-12.442c0-2.551-.393-7.431-3.027-11.446a13.61 13.61 0 0 1 4.984-4.319A16.121 16.121 0 0 1 12.786 0h.287a15.31 15.31 0 0 1 7.373 1.8A12.8 12.8 0 0 1 25 6.152a21.74 21.74 0 0 0-3.349 12.338 20.13 20.13 0 0 0 2.955 11.219 13.866 13.866 0 0 1-4.936 4.528A15.828 15.828 0 0 1 12.088 36zm.573-29.167a4.382 4.382 0 0 0-3.653 2.15c-1.381 2.263-1.541 6.828-1.541 10.066a25.1 25.1 0 0 0 .466 5.558c.694 2.783 2.3 4.316 4.513 4.316 3.422 0 5.086-3.441 5.086-10.52a39.54 39.54 0 0 0-.627-7.463c-.605-2.61-2.155-4.107-4.244-4.107z" class="cls-4" data-name="Shape" transform="translate(51 36)"/>
        <path id="Shape-4" d="M3.272 24A19.362 19.362 0 0 1 0 12.57 20.925 20.925 0 0 1 3.708 0 20.482 20.482 0 0 1 7 11.555 21.515 21.515 0 0 1 3.272 24" class="cls-4" data-name="Shape" transform="translate(73 42)"/>
        <path id="Shape-5" d="M3.75 0A20.862 20.862 0 0 0 0 12.633 19.256 19.256 0 0 0 3.231 24 21.044 21.044 0 0 0 7 11.491 20.365 20.365 0 0 0 3.75 0" class="cls-5" data-name="Shape" transform="translate(49 42)"/>
        <path id="Shape-6" d="M25.28 12.7a15.3 15.3 0 0 0-7.652-1.916 16.772 16.772 0 0 0-5.739.985c-.358.161-.715.358-1.073.555l.518-4.979H27.05a15.394 15.394 0 0 1 2.574-3.761L30 0H3.844L1.9 19.111l8.76 1.075c.608-.931 1.43-2.257 4.309-2.257 3.647 0 5.381 2.31 5.381 5.5 0 2.776-1.484 5.5-5.221 5.5a4.256 4.256 0 0 1-4.416-2.973 8.788 8.788 0 0 1-.25-2.561L0 24.466c.572 2.669 1.073 5.14 3.325 7.5C7.33 36 13.176 36 15.072 36c2.968 0 8.456-.251 12.3-4.209a11.088 11.088 0 0 0 1.037-1.2C26.12 27.564 24.8 23.355 24.8 18.125a28.374 28.374 0 0 1 .48-5.425" class="cls-6" data-name="Shape" transform="translate(0 36)"/>
        <path id="Shape-7" d="M2.542 4L3 0a16.952 16.952 0 0 0-3 4z" class="cls-7" data-name="Shape" transform="translate(26 39)"/>
        <path id="Shape-8" d="M.558 0A25.823 25.823 0 0 0 0 5.459C0 10.721 1.476 14.955 4.028 18A12.65 12.65 0 0 0 7 10C7.02 5.568 4.507 2.036.558 0" class="cls-7" data-name="Shape" transform="translate(25 50)"/>
        <path id="Shape-9" d="M0 29v-6.319h3.745V6.806H0V0h20v6.806h-3.762v15.858H20V29z" class="cls-2" data-name="Shape" transform="translate(8)"/>
        <path id="Shape-10" d="M17.4 22v-6.268h2.962V9.17c0-1.969-1.446-2.867-3.3-2.867a3.96 3.96 0 0 0-4.125 3.989v5.44h3.05V22H0v-6.268h2.891V6.268H0V0h12.6v4.334a3.836 3.836 0 0 0 .582-.6C15.5 1.14 18.122.224 21.595.224c4.866 0 8.814 1.934 8.814 7.218v8.289H33V22z" class="cls-2" data-name="Shape" transform="translate(32 7)"/>
        <path id="Shape-11" d="M25.879 8.993l-8.47.916c-.1-2.306-.589-4.731-3.447-4.731-3.638 0-3.932 2.968-3.932 5.817v.051c0 2.849.277 5.817 3.932 5.817 1.905 0 3.6-1.068 3.6-3.341H26l-.069.712C24.545 20.949 18.344 22 13.875 22 6.877 22 0 18.625 0 10.994v.017C0 3.363 6.877.006 13.875.006c0 .017 10.982-.678 12 8.988" class="cls-2" data-name="Shape" transform="translate(63 7)"/>
        <path id="Shape-12" d="M7 3.5A3.5 3.5 0 1 1 3.5 0 3.495 3.495 0 0 1 7 3.5" class="cls-2" data-name="Shape" transform="translate(89 22)"/>
    </g>
</svg>
