<svg xmlns="http://www.w3.org/2000/svg" width="159" height="59" viewBox="0 0 159 59">
    <defs>
        <style>
            .cls-1{fill:#f79522;font-size:16px;font-family:FontAwesome}.cls-2{fill:#fff}.cls-3{fill:#f69422}
        </style>
    </defs>
    <g id="Group_1354" data-name="Group 1354" transform="translate(-126 -2467)">
        <text id="_" class="cls-1" data-name="    " transform="translate(194 2507)">
            <tspan x="0" y="0">    </tspan>
        </text>
        <circle id="Oval_3" cx="29.5" cy="29.5" r="29.5" class="cls-2" data-name="Oval 3" transform="translate(126 2467)"/>
        <g id="Group_1353" data-name="Group 1353" transform="translate(-135.033 2272.829)">
            <path id="Path_3017" d="M300.664 219.6a10.466 10.466 0 0 0-10.683-9.427 10.051 10.051 0 0 0-8.657 5.386 10.233 10.233 0 0 0-.477 9 37.129 37.129 0 0 0 8.6 12.846 1.613 1.613 0 0 0 2.1-.062 32.152 32.152 0 0 0 2.223-2.512 37.961 37.961 0 0 0 5.7-9.125 12.827 12.827 0 0 0 1.194-6.106zm-3.481 1.3a6.828 6.828 0 1 1-6.675-7.2 6.755 6.755 0 0 1 6.676 7.2z" class="cls-3" data-name="Path 3017"/>
            <path id="Path_3018" d="M355.849 289.3a3.412 3.412 0 0 1 6.824 0 3.416 3.416 0 0 1-3.421 3.412 3.379 3.379 0 0 1-3.403-3.412z" class="cls-3" data-name="Path 3018" transform="translate(-68.839 -68.747)"/>
        </g>
    </g>
</svg>
